PathFileType	4	(X/Y/Z)	C:/Users/beibeiliu/ov580/test_trc/User1\sequence.34_training_dense_right.trc
DataRate	CameraRate	NumFrames	NumMarkers	Units	OrigDataRate	OrigDataStartFrame	OrigNumFrames
120	120	10	19	mm	120	176	234
Frame#	Time	ThumbCMC			ThumbMCP			ThumbIP			ThumbTip			IndexMCP			IndexPIP			IndexTip			MiddleMCP			MiddlePIP			MiddleTip			RingMCP			RingPIP			RingTip			PinkyMCP			PinkyPIP			PinkyTip			BackHand1			BackHand2			BackHand3	
		X0	Y0	Z0	X1	Y1	Z1	X2	Y2	Z2	X3	Y3	Z3	X4	Y4	Z4	X5	Y5	Z5	X6	Y6	Z6	X7	Y7	Z7	X8	Y8	Z8	X9	Y9	Z9	X10	Y10	Z10	X11	Y11	Z11	X12	Y12	Z12	X13	Y13	Z13	X14	Y14	Z14	X15	Y15	Z15	X16	Y16	Z16	X17	Y17	Z17	X18	Y18	Z18	
175	1.45833	162.8	-0.673837	117.689	148.827	2.09184	81.5842	139.433	12.2746	58.4191	137.083	13.9812	35.9914	199.862	58.7236	76.0831	201.454	78.3795	50.6192	187.759	81.2457	19.443	227.136	46.0603	62.4074	225.154	58.612	25.6859	204.642	42.7022	3.01572	227.842	21.0242	42.7081	205.004	14.5646	18.6288	186.541	-5.4325	32.0297	231.683	-6.56851	42.4948	207.773	-7.47335	27.5266	182.458	-19.9142	41.8099	232.523	-7.06584	102.287	225.048	-26.5229	128.38	206.588	7.90961	126.621	
176	1.46667	164.406	9.9525	123.709	150.908	15.8902	88.3149	140.332	28.9953	64.664	139.783	33.217	41.3194	204.338	74.0463	86.8178	203.154	96.7154	65.7963	191.413	100.877	37.7878	231.897	62.0745	71.339	228.086	76.336	39.5477	203.086	61.6397	15.8913	226.993	41.4927	51.6438	208.023	37.8257	27.7526	185.98	11.0223	41.5518	232.261	11.0502	50.7433	211.38	8.801	30.2999	185.13	-2.72103	46.198	231.883	8.22946	103.688	227.291	-16.8006	132.495	205.337	17.177	131.924	
177	1.475	162.602	21.1611	128.93	148.35	28.6555	93.2302	145.391	44.5289	69.284	134.3	51.3312	46.5501	202.256	90.1976	100.072	206.215	111.832	74.724	192.463	117.433	49.1491	231.842	73.7372	83.5587	229.375	96.6283	51.9775	202.426	84.7856	25.2371	230.699	53.9249	58.2465	209.147	54.3895	32.5267	186.327	31.2987	45.7103	233.306	25.4474	55.7572	211.462	32.4378	37.615	186.189	17.9454	55.8491	230.889	18.2922	112.35	228.756	-7.06059	134.087	205.781	27.7774	140.052	
178	1.48333	164.405	30.474	131.995	149.082	43.801	94.9094	138.907	58.4496	75.0849	134.272	67.9749	51.7315	201.08	98.3834	108.87	207.235	124.618	88.1845	191.291	133.726	58.9623	229.914	88.5055	91.4607	232.811	112.237	65.5321	205.819	107.593	32.9274	226.97	73.3543	63.8366	208.995	70.8304	37.5282	187.14	47.4957	47.9022	231.187	43.7923	62.5374	210.591	50.1642	41.9982	185.591	33.2521	54.3234	228.889	31.5756	112.566	229.242	5.21795	132.967	206.434	36.84	139.241	
179	1.49167	162.151	41.3509	133.05	148.894	51.0806	99.5427	141.145	65.2422	80.5559	135.852	78.1011	57.449	203.723	110.011	112.766	202.911	136.433	97.4951	193.909	142.567	68.5214	227.958	98.6321	98.805	234.004	122.441	73.3311	212.955	125.863	41.2333	227.804	82.5914	67.6654	203.67	86.357	43.5882	183.72	59.7822	53.0733	228.919	59.2083	62.6615	209.658	63.4506	45.6391	184.671	43.6843	58.8049	229.052	39.573	114.273	227.024	11.5282	133.797	204.18	45.1033	143.804	
180	1.5	161.262	44.7631	134.607	144.238	56.1643	103.491	138.531	76.2324	82.5375	129.76	88.3846	59.948	198.944	111.968	118.267	203.626	143.243	101.263	189.216	155.747	76.1996	226.175	108.869	102.322	229.781	134.666	80.8313	213.609	140.126	47.1056	222.363	93.6662	75.1055	201.539	94.3794	45.147	182.431	71.456	52.3179	228.869	65.6354	67.9691	207.366	72.6215	46.686	184.399	52.2811	58.9481	229.882	50.4515	114.737	226.417	17.78	136.806	202.666	50.4349	146.475	
181	1.50833	158.197	50.3631	134.39	141.937	64.1787	103.864	134.451	79.9811	85.9878	130.93	94.399	63.127	194.268	119.153	123.607	198.741	149.738	107.755	186.954	160.934	82.584	223.797	112.308	106.27	228.296	141.576	85.118	209.601	152.465	53.6539	224.166	98.0895	75.852	202.19	102.12	47.8479	178.995	80.447	55.3091	227.896	74.2096	65.3108	204.164	78.6374	49.497	181.189	62.2534	59.888	223.668	54.7835	120.819	223.081	26.5679	136.954	199.149	53.4857	145.178	
182	1.51667	153.892	52.8175	136.374	140.26	65.3045	106.34	131.277	90.2524	86.0343	129.705	102.87	63.2033	192.867	125.814	126.999	197.633	153.109	111.791	186.626	164.686	85.8187	219.732	117.073	109.652	227.378	144.006	88.8068	206.872	158.868	56.6086	219.587	104.065	80.6196	199.425	107.958	49.3663	180.047	80.3482	54.9647	226.196	80.3701	65.8877	201.806	83.1186	51.3672	179.228	67.2563	62.4628	224.273	61.8424	120.358	222.414	26.3882	134.874	196.996	58.3554	148.79	
183	1.525	155.444	53.4724	135.082	138.849	70.4695	105.117	129.14	90.5135	88.4529	127.181	105.906	64.6863	192.07	122.459	127.185	193.561	154.905	117.13	183.061	170.328	92.3647	220.801	119.332	109.198	225.12	149.787	88.9719	208.218	159.485	56.953	219.132	109.943	77.1071	195.958	110.389	51.186	177.1	85.3538	56.5619	226.252	78.5816	66.7373	201.549	83.9632	49.2686	177.996	67.5929	68.4804	223.521	62.4325	120.891	220.28	28.0607	135.442	194.374	60.9959	147.83	
184	1.53333	152.011	56.6762	134.235	139.563	72.7535	104.269	129.09	92.3013	86.8331	128.425	105.791	65.6831	188.395	126.907	129.362	192.414	157.531	116.492	183.248	170.702	91.0396	220.161	122.826	110.506	225.007	147.999	91.8863	208.28	163.763	58.4274	217.261	108.749	80.5247	195.475	114.224	53.7453	177.181	85.3609	55.6844	223.359	81.8893	69.4756	200.999	83.535	47.5039	178.588	66.015	64.2685	219.747	62.2763	121.086	216.922	32.5796	136.39	192.582	59.3564	146.192	
